<?xml version="1.0" standalone="no"?>
<svg viewBox="0 0 200 200" xmlns="http://www.w3.org/2000/svg">
  <path fill="#A7F0BA" d="M32.8,-49.6C47.5,-41.5,67.8,-40.9,72.1,-32.6C76.3,-24.3,64.5,-8.4,60.5,7.6C56.6,23.7,60.5,39.7,54.9,49.2C49.2,58.6,34,61.4,18.7,67.9C3.3,74.4,-12.2,84.5,-25.9,83C-39.7,81.4,-51.5,68.2,-62.3,54.6C-73,41,-82.6,27.2,-86.5,11.4C-90.3,-4.3,-88.4,-21.9,-78.3,-32.3C-68.2,-42.8,-50,-46,-35.5,-54.2C-21.1,-62.4,-10.6,-75.5,-0.8,-74.3C9,-73.1,18.1,-57.6,32.8,-49.6Z" transform="translate(100 100)" />
</svg>
