<svg id="visual" viewBox="0 0 900 600" width="900" height="600" xmlns="http://www.w3.org/2000/svg" xmlns:xlink="http://www.w3.org/1999/xlink" version="1.1"><g stroke-width="1" stroke-linejoin="bevel"><path d="M470 266L488 199L429 212Z" fill="#82cffc" stroke="#82cffc"></path><path d="M429 212L407 298L470 266Z" fill="#82cffc" stroke="#82cffc"></path><path d="M608 226L538 106L488 199Z" fill="#9bd6f9" stroke="#9bd6f9"></path><path d="M488 199L419 74L429 212Z" fill="#82cffc" stroke="#82cffc"></path><path d="M615 279L608 226L470 266Z" fill="#b1dcf5" stroke="#b1dcf5"></path><path d="M470 266L608 226L488 199Z" fill="#b1dcf5" stroke="#b1dcf5"></path><path d="M596 362L615 279L470 266Z" fill="#d0e5f1" stroke="#d0e5f1"></path><path d="M538 106L419 74L488 199Z" fill="#bbdff4" stroke="#bbdff4"></path><path d="M429 212L313 160L407 298Z" fill="#82cffc" stroke="#82cffc"></path><path d="M419 74L313 160L429 212Z" fill="#b1dcf5" stroke="#b1dcf5"></path><path d="M323 370L439 407L407 298Z" fill="#a6d9f7" stroke="#a6d9f7"></path><path d="M407 298L439 407L470 266Z" fill="#c6e2f3" stroke="#c6e2f3"></path><path d="M313 160L301 309L407 298Z" fill="#82cffc" stroke="#82cffc"></path><path d="M529 421L596 362L470 266Z" fill="#8fd3fa" stroke="#8fd3fa"></path><path d="M608 226L621 115L538 106Z" fill="#b1dcf5" stroke="#b1dcf5"></path><path d="M538 106L536 0L419 74Z" fill="#a6d9f7" stroke="#a6d9f7"></path><path d="M676 168L621 115L608 226Z" fill="#9bd6f9" stroke="#9bd6f9"></path><path d="M301 309L323 370L407 298Z" fill="#9bd6f9" stroke="#9bd6f9"></path><path d="M439 407L529 421L470 266Z" fill="#dae8f0" stroke="#dae8f0"></path><path d="M711 293L608 226L615 279Z" fill="#d0e5f1" stroke="#d0e5f1"></path><path d="M711 293L676 168L608 226Z" fill="#8fd3fa" stroke="#8fd3fa"></path><path d="M419 74L294 86L313 160Z" fill="#82cffc" stroke="#82cffc"></path><path d="M177 316L232 395L301 309Z" fill="#b1dcf5" stroke="#b1dcf5"></path><path d="M676 168L662 105L621 115Z" fill="#c6e2f3" stroke="#c6e2f3"></path><path d="M610 0L536 0L538 106Z" fill="#bbdff4" stroke="#bbdff4"></path><path d="M439 407L479 466L529 421Z" fill="#c6e2f3" stroke="#c6e2f3"></path><path d="M698 431L711 293L596 362Z" fill="#a6d9f7" stroke="#a6d9f7"></path><path d="M393 527L479 466L439 407Z" fill="#74ccfd" stroke="#74ccfd"></path><path d="M610 0L538 106L621 115Z" fill="#8fd3fa" stroke="#8fd3fa"></path><path d="M419 74L370 0L294 86Z" fill="#b1dcf5" stroke="#b1dcf5"></path><path d="M536 0L370 0L419 74Z" fill="#65c9ff" stroke="#65c9ff"></path><path d="M596 362L711 293L615 279Z" fill="#65c9ff" stroke="#65c9ff"></path><path d="M676 168L774 171L662 105Z" fill="#c6e2f3" stroke="#c6e2f3"></path><path d="M698 431L596 362L629 521Z" fill="#65c9ff" stroke="#65c9ff"></path><path d="M370 0L325 0L294 86Z" fill="#8fd3fa" stroke="#8fd3fa"></path><path d="M662 105L610 0L621 115Z" fill="#a6d9f7" stroke="#a6d9f7"></path><path d="M165 224L301 309L313 160Z" fill="#dae8f0" stroke="#dae8f0"></path><path d="M301 309L232 395L323 370Z" fill="#dae8f0" stroke="#dae8f0"></path><path d="M323 370L393 527L439 407Z" fill="#a6d9f7" stroke="#a6d9f7"></path><path d="M224 0L218 60L294 86Z" fill="#8fd3fa" stroke="#8fd3fa"></path><path d="M294 86L218 60L313 160Z" fill="#82cffc" stroke="#82cffc"></path><path d="M218 60L165 224L313 160Z" fill="#82cffc" stroke="#82cffc"></path><path d="M165 224L177 316L301 309Z" fill="#d0e5f1" stroke="#d0e5f1"></path><path d="M283 528L393 527L323 370Z" fill="#65c9ff" stroke="#65c9ff"></path><path d="M629 521L529 421L479 466Z" fill="#65c9ff" stroke="#65c9ff"></path><path d="M629 521L596 362L529 421Z" fill="#b1dcf5" stroke="#b1dcf5"></path><path d="M813 336L774 171L711 293Z" fill="#bbdff4" stroke="#bbdff4"></path><path d="M711 293L774 171L676 168Z" fill="#b1dcf5" stroke="#b1dcf5"></path><path d="M662 105L715 0L610 0Z" fill="#bbdff4" stroke="#bbdff4"></path><path d="M325 0L224 0L294 86Z" fill="#a6d9f7" stroke="#a6d9f7"></path><path d="M218 60L124 92L165 224Z" fill="#c6e2f3" stroke="#c6e2f3"></path><path d="M565 600L629 521L479 466Z" fill="#82cffc" stroke="#82cffc"></path><path d="M816 95L715 0L662 105Z" fill="#82cffc" stroke="#82cffc"></path><path d="M232 395L283 528L323 370Z" fill="#a6d9f7" stroke="#a6d9f7"></path><path d="M213 478L283 528L232 395Z" fill="#dae8f0" stroke="#dae8f0"></path><path d="M123 465L213 478L232 395Z" fill="#65c9ff" stroke="#65c9ff"></path><path d="M793 407L711 293L698 431Z" fill="#74ccfd" stroke="#74ccfd"></path><path d="M793 407L813 336L711 293Z" fill="#dae8f0" stroke="#dae8f0"></path><path d="M91 0L124 92L218 60Z" fill="#d0e5f1" stroke="#d0e5f1"></path><path d="M165 224L61 302L177 316Z" fill="#d0e5f1" stroke="#d0e5f1"></path><path d="M177 316L123 465L232 395Z" fill="#b1dcf5" stroke="#b1dcf5"></path><path d="M407 600L479 600L393 527Z" fill="#74ccfd" stroke="#74ccfd"></path><path d="M393 527L479 600L479 466Z" fill="#a6d9f7" stroke="#a6d9f7"></path><path d="M686 600L739 482L629 521Z" fill="#b1dcf5" stroke="#b1dcf5"></path><path d="M629 521L739 482L698 431Z" fill="#65c9ff" stroke="#65c9ff"></path><path d="M773 464L793 407L698 431Z" fill="#8fd3fa" stroke="#8fd3fa"></path><path d="M278 600L407 600L393 527Z" fill="#a6d9f7" stroke="#a6d9f7"></path><path d="M124 92L88 209L165 224Z" fill="#a6d9f7" stroke="#a6d9f7"></path><path d="M774 171L816 95L662 105Z" fill="#c6e2f3" stroke="#c6e2f3"></path><path d="M900 197L816 95L774 171Z" fill="#74ccfd" stroke="#74ccfd"></path><path d="M479 600L565 600L479 466Z" fill="#82cffc" stroke="#82cffc"></path><path d="M769 600L773 464L739 482Z" fill="#74ccfd" stroke="#74ccfd"></path><path d="M739 482L773 464L698 431Z" fill="#9bd6f9" stroke="#9bd6f9"></path><path d="M88 209L61 302L165 224Z" fill="#a6d9f7" stroke="#a6d9f7"></path><path d="M70 370L123 465L177 316Z" fill="#8fd3fa" stroke="#8fd3fa"></path><path d="M226 600L278 600L283 528Z" fill="#d0e5f1" stroke="#d0e5f1"></path><path d="M283 528L278 600L393 527Z" fill="#c6e2f3" stroke="#c6e2f3"></path><path d="M226 600L283 528L213 478Z" fill="#9bd6f9" stroke="#9bd6f9"></path><path d="M816 95L813 0L715 0Z" fill="#9bd6f9" stroke="#9bd6f9"></path><path d="M61 302L70 370L177 316Z" fill="#65c9ff" stroke="#65c9ff"></path><path d="M565 600L686 600L629 521Z" fill="#d0e5f1" stroke="#d0e5f1"></path><path d="M0 114L0 223L88 209Z" fill="#65c9ff" stroke="#65c9ff"></path><path d="M88 209L0 223L61 302Z" fill="#9bd6f9" stroke="#9bd6f9"></path><path d="M224 0L91 0L218 60Z" fill="#65c9ff" stroke="#65c9ff"></path><path d="M900 291L813 336L900 409Z" fill="#65c9ff" stroke="#65c9ff"></path><path d="M900 291L774 171L813 336Z" fill="#bbdff4" stroke="#bbdff4"></path><path d="M900 291L900 197L774 171Z" fill="#82cffc" stroke="#82cffc"></path><path d="M816 95L900 92L813 0Z" fill="#65c9ff" stroke="#65c9ff"></path><path d="M900 409L813 336L793 407Z" fill="#8fd3fa" stroke="#8fd3fa"></path><path d="M900 409L793 407L900 472Z" fill="#c6e2f3" stroke="#c6e2f3"></path><path d="M136 600L226 600L213 478Z" fill="#b1dcf5" stroke="#b1dcf5"></path><path d="M900 197L900 92L816 95Z" fill="#74ccfd" stroke="#74ccfd"></path><path d="M0 114L88 209L124 92Z" fill="#c6e2f3" stroke="#c6e2f3"></path><path d="M61 302L0 320L70 370Z" fill="#a6d9f7" stroke="#a6d9f7"></path><path d="M900 472L793 407L773 464Z" fill="#9bd6f9" stroke="#9bd6f9"></path><path d="M70 370L0 392L123 465Z" fill="#74ccfd" stroke="#74ccfd"></path><path d="M123 465L136 600L213 478Z" fill="#a6d9f7" stroke="#a6d9f7"></path><path d="M0 223L0 320L61 302Z" fill="#b1dcf5" stroke="#b1dcf5"></path><path d="M91 0L0 114L124 92Z" fill="#8fd3fa" stroke="#8fd3fa"></path><path d="M686 600L769 600L739 482Z" fill="#c6e2f3" stroke="#c6e2f3"></path><path d="M0 320L0 392L70 370Z" fill="#dae8f0" stroke="#dae8f0"></path><path d="M900 92L900 0L813 0Z" fill="#b1dcf5" stroke="#b1dcf5"></path><path d="M0 516L136 600L123 465Z" fill="#9bd6f9" stroke="#9bd6f9"></path><path d="M769 600L900 472L773 464Z" fill="#b1dcf5" stroke="#b1dcf5"></path><path d="M91 0L0 0L0 114Z" fill="#65c9ff" stroke="#65c9ff"></path><path d="M0 392L0 516L123 465Z" fill="#bbdff4" stroke="#bbdff4"></path><path d="M769 600L900 600L900 472Z" fill="#dae8f0" stroke="#dae8f0"></path><path d="M0 516L0 600L136 600Z" fill="#dae8f0" stroke="#dae8f0"></path></g></svg>