<svg id="visual" viewBox="0 0 1400 1080" width="1400" height="1080" xmlns="http://www.w3.org/2000/svg" xmlns:xlink="http://www.w3.org/1999/xlink" version="1.1"><path d="M0 260L127 260L127 293L255 293L255 422L382 422L382 379L509 379L509 174L636 174L636 390L764 390L764 282L891 282L891 206L1018 206L1018 228L1145 228L1145 174L1273 174L1273 195L1400 195L1400 195L1400 0L1400 0L1273 0L1273 0L1145 0L1145 0L1018 0L1018 0L891 0L891 0L764 0L764 0L636 0L636 0L509 0L509 0L382 0L382 0L255 0L255 0L127 0L127 0L0 0Z" fill="#ffffff"></path><path d="M0 444L127 444L127 487L255 487L255 573L382 573L382 552L509 552L509 390L636 390L636 573L764 573L764 433L891 433L891 282L1018 282L1018 357L1145 357L1145 336L1273 336L1273 271L1400 271L1400 325L1400 193L1400 193L1273 193L1273 172L1145 172L1145 226L1018 226L1018 204L891 204L891 280L764 280L764 388L636 388L636 172L509 172L509 377L382 377L382 420L255 420L255 291L127 291L127 258L0 258Z" fill="#f0cbd4"></path><path d="M0 563L127 563L127 617L255 617L255 779L382 779L382 811L509 811L509 584L636 584L636 703L764 703L764 563L891 563L891 465L1018 465L1018 487L1145 487L1145 627L1273 627L1273 465L1400 465L1400 509L1400 323L1400 269L1273 269L1273 334L1145 334L1145 355L1018 355L1018 280L891 280L891 431L764 431L764 571L636 571L636 388L509 388L509 550L382 550L382 571L255 571L255 485L127 485L127 442L0 442Z" fill="#de97ab"></path><path d="M0 649L127 649L127 757L255 757L255 930L382 930L382 930L509 930L509 703L636 703L636 789L764 789L764 649L891 649L891 595L1018 595L1018 638L1145 638L1145 725L1273 725L1273 649L1400 649L1400 681L1400 507L1400 463L1273 463L1273 625L1145 625L1145 485L1018 485L1018 463L891 463L891 561L764 561L764 701L636 701L636 582L509 582L509 809L382 809L382 777L255 777L255 615L127 615L127 561L0 561Z" fill="#c96384"></path><path d="M0 1081L127 1081L127 1081L255 1081L255 1081L382 1081L382 1081L509 1081L509 1081L636 1081L636 1081L764 1081L764 1081L891 1081L891 1081L1018 1081L1018 1081L1145 1081L1145 1081L1273 1081L1273 1081L1400 1081L1400 1081L1400 679L1400 647L1273 647L1273 723L1145 723L1145 636L1018 636L1018 593L891 593L891 647L764 647L764 787L636 787L636 701L509 701L509 928L382 928L382 928L255 928L255 755L127 755L127 647L0 647Z" fill="#b0235f"></path></svg>