<svg width="1872" height="378" viewBox="0 0 1872 378" fill="none" xmlns="http://www.w3.org/2000/svg">
<path d="M1409.3 -46.7143L1455.91 -93L1502.52 -46.7143L1549.13 -93L1595.74 -46.7143L1642.35 -93L1688.96 -46.7143L1735.56 -93L1782.17 -46.7143L1828.78 -93L1875.39 -46.7143L1922 -93M1409.3 22.7143L1455.91 -23.5714L1502.52 22.7143L1549.13 -23.5714L1595.74 22.7143L1642.35 -23.5714L1688.96 22.7143L1735.56 -23.5714L1782.17 22.7143L1828.78 -23.5714L1875.39 22.7143L1922 -23.5714M1409.3 89.5714L1455.91 43.2857L1502.52 89.5714L1549.13 43.2857L1595.74 89.5714L1642.35 43.2857L1688.96 89.5714L1735.56 43.2857L1782.17 89.5714L1828.78 43.2857L1875.39 89.5714L1922 43.2857M1409.3 159L1455.91 112.714L1502.52 159L1549.13 112.714L1595.74 159L1642.35 112.714L1688.96 159L1735.56 112.714L1782.17 159L1828.78 112.714L1875.39 159L1922 112.714M1409.3 228.429L1455.91 182.143L1502.52 228.429L1549.13 182.143L1595.74 228.429L1642.35 182.143L1688.96 228.429L1735.56 182.143L1782.17 228.429L1828.78 182.143L1875.39 228.429L1922 182.143M1409.3 295.286L1455.91 251.571L1502.52 295.286L1549.13 251.571L1595.74 295.286L1642.35 251.571L1688.96 295.286L1735.56 251.571L1782.17 295.286L1828.78 251.571L1875.39 295.286L1922 251.571M1409.3 364.714L1455.91 318.429L1502.52 364.714L1549.13 318.429L1595.74 364.714L1642.35 318.429L1688.96 364.714L1735.56 318.429L1782.17 364.714L1828.78 318.429L1875.39 364.714L1922 318.429M941.074 -44.1429L987.682 -90.4286L1034.29 -44.1429L1080.9 -90.4286L1127.51 -44.1429L1174.12 -90.4286L1220.73 -44.1429L1267.34 -90.4286L1313.94 -44.1429L1360.55 -90.4286L1407.16 -44.1429L1453.77 -90.4286M941.074 25.2857L987.682 -21L1034.29 25.2857L1080.9 -21L1127.51 25.2857L1174.12 -21L1220.73 25.2857L1267.34 -21L1313.94 25.2857L1360.55 -21L1407.16 25.2857L1453.77 -21M941.074 92.1429L987.682 45.8571L1034.29 92.1429L1080.9 45.8571L1127.51 92.1429L1174.12 45.8571L1220.73 92.1429L1267.34 45.8571L1313.94 92.1429L1360.55 45.8571L1407.16 92.1429L1453.77 45.8571M941.074 161.571L987.682 115.286L1034.29 161.571L1080.9 115.286L1127.51 161.571L1174.12 115.286L1220.73 161.571L1267.34 115.286L1313.94 161.571L1360.55 115.286L1407.16 161.571L1453.77 115.286M941.074 231L987.682 184.714L1034.29 231L1080.9 184.714L1127.51 231L1174.12 184.714L1220.73 231L1267.34 184.714L1313.94 231L1360.55 184.714L1407.16 231L1453.77 184.714M941.074 297.857L987.682 254.143L1034.29 297.857L1080.9 254.143L1127.51 297.857L1174.12 254.143L1220.73 297.857L1267.34 254.143L1313.94 297.857L1360.55 254.143L1407.16 297.857L1453.77 254.143M941.074 367.286L987.682 321L1034.29 367.286L1080.9 321L1127.51 367.286L1174.12 321L1220.73 367.286L1267.34 321L1313.94 367.286L1360.55 321L1407.16 367.286L1453.77 321M470.229 -39L516.838 -85.2857L563.447 -39L610.055 -85.2857L656.664 -39L703.273 -85.2857L749.882 -39L796.491 -85.2857L843.1 -39L889.709 -85.2857L936.318 -39L982.926 -85.2857M470.229 30.4286L516.838 -15.8571L563.447 30.4286L610.055 -15.8571L656.664 30.4286L703.273 -15.8571L749.882 30.4286L796.491 -15.8571L843.1 30.4286L889.709 -15.8571L936.318 30.4286L982.926 -15.8571M470.229 97.2857L516.838 51L563.447 97.2857L610.055 51L656.664 97.2857L703.273 51L749.882 97.2857L796.491 51L843.1 97.2857L889.709 51L936.318 97.2857L982.926 51M470.229 166.714L516.838 120.429L563.447 166.714L610.055 120.429L656.664 166.714L703.273 120.429L749.882 166.714L796.491 120.429L843.1 166.714L889.709 120.429L936.318 166.714L982.926 120.429M470.229 236.143L516.838 189.857L563.447 236.143L610.055 189.857L656.664 236.143L703.273 189.857L749.882 236.143L796.491 189.857L843.1 236.143L889.709 189.857L936.318 236.143L982.926 189.857M470.229 303L516.838 259.286L563.447 303L610.055 259.286L656.664 303L703.273 259.286L749.882 303L796.491 259.286L843.1 303L889.709 259.286L936.318 303L982.926 259.286M470.229 372.429L516.838 326.143L563.447 372.429L610.055 326.143L656.664 372.429L703.273 326.143L749.882 372.429L796.491 326.143L843.1 372.429L889.709 326.143L936.318 372.429L982.926 326.143M2 -36.4286L48.6089 -82.7143L95.2177 -36.4286L141.827 -82.7143L188.435 -36.4286L235.044 -82.7143L281.653 -36.4286L328.262 -82.7143L374.871 -36.4286L421.48 -82.7143L468.089 -36.4286L514.698 -82.7143M2 33L48.6089 -13.2857L95.2177 33L141.827 -13.2857L188.435 33L235.044 -13.2857L281.653 33L328.262 -13.2857L374.871 33L421.48 -13.2857L468.089 33L514.698 -13.2857M2 99.8571L48.6089 53.5714L95.2177 99.8571L141.827 53.5714L188.435 99.8571L235.044 53.5714L281.653 99.8571L328.262 53.5714L374.871 99.8571L421.48 53.5714L468.089 99.8571L514.698 53.5714M2 169.286L48.6089 123L95.2177 169.286L141.827 123L188.435 169.286L235.044 123L281.653 169.286L328.262 123L374.871 169.286L421.48 123L468.089 169.286L514.698 123M2 238.714L48.6089 192.429L95.2177 238.714L141.827 192.429L188.435 238.714L235.044 192.429L281.653 238.714L328.262 192.429L374.871 238.714L421.48 192.429L468.089 238.714L514.698 192.429M2 305.571L48.6089 261.857L95.2177 305.571L141.827 261.857L188.435 305.571L235.044 261.857L281.653 305.571L328.262 261.857L374.871 305.571L421.48 261.857L468.089 305.571L514.698 261.857M2 375L48.6089 328.714L95.2177 375L141.827 328.714L188.435 375L235.044 328.714L281.653 375L328.262 328.714L374.871 375L421.48 328.714L468.089 375L514.698 328.714" stroke="#2F4551" stroke-opacity="0.82" stroke-width="3" stroke-linecap="round"/>
</svg>
